# xmcd
#
# Track frame offsets:
#	225
#	3575
#	17554
#	31941
#	44764
#	54877
#	66234
#	79533
#	90860
#	99996
#	112523
#	124480
#	132920
#	145380
#	156317
#	163884
#	174456
#	186256
#	198257
#	208520
#
# Disc length: 2936 seconds
#
# Revision: 0
# Processed by: cddbd v1.5.2PL0 Copyright (c) Steve Scherf et al.
# Submitted via: EasyCDDAExtractor 16.0.6.1
#
DISCID=080b7514
DTITLE=Χορωδία - Waffen SS
DYEAR=1996
DGENRE=Εθνικοσοσιαλιστική
TTITLE0=Χορωδία - SS marschiert in Feindesland
TTITLE1=Χορωδία - Siehst Du in Osten das Morgenrot
TTITLE2=Άνευ ερμηνευτού - Horst Wessel Gedenkmarsch [ορχηστρικό]
TTITLE3=Άνευ ερμηνευτού - Gruppe Alpenland [ορχηστρικό]
TTITLE4=Άνευ ερμηνευτού - Marsch der Ordensritter [ορχηστρικό]
TTITLE5=Χορωδία - Hort ihr es grollen
TTITLE6=Χορωδία - Ich hatt einen Kameraden
TTITLE7=Χορωδία - Flamme empor
TTITLE8=Χορωδία - Der Gott, der Eisen wachsen liess
TTITLE9=Άνευ ερμηνευτού - Nibelungen Marsch [ορχηστρικό]
TTITLE10=Χορωδία - Schon ist es, Soldat zu sein
TTITLE11=Χορωδία - Prinz Eugen
TTITLE12=Χορωδία - Was unsere Vater schufen
TTITLE13=Άνευ ερμηνευτού - Das schwarze Korps [ορχηστρικό]
TTITLE14=Άνευ ερμηνευτού - SS Parademarsch [ορχηστρικό]
TTITLE15=Χορωδία - Die teutoburger Schlacht
TTITLE16=Άνευ ερμηνευτού - Leibgarde in Dresden [ορχηστρικό]
TTITLE17=Χορωδία - Heut' sind wir wieder unter uns
TTITLE18=Άνευ ερμηνευτού - Unsere Garde [ορχηστρικό]
TTITLE19=Χορωδία - Triumphmarsch der NSDAP
EXTD=
EXTT0=
EXTT1=
EXTT2=
EXTT3=
EXTT4=
EXTT5=
EXTT6=
EXTT7=
EXTT8=
EXTT9=
EXTT10=
EXTT11=
EXTT12=
EXTT13=
EXTT14=
EXTT15=
EXTT16=
EXTT17=
EXTT18=
EXTT19=
PLAYORDER=
